<?xml version="1.0" encoding="UTF-8" standalone="no"?>
<!-- Created with Inkscape (http://www.inkscape.org/) -->
<svg
  xmlns="http://www.w3.org/2000/svg"
  version="1.1"
  width="64px" height="64px">
  <defs id="defs3561">
    <linearGradient
      id="linearGradient1"
      x1="1" y1="0"
      x2="0.3" y2="1">
      <stop
        offset="0"
        style="stop-color:#222; stop-opacity:0.1"/>
      <stop
        offset="1"
        style="stop-color:#222; stop-opacity:0.4"/>
    </linearGradient>
    <linearGradient
      id="linearGradient2"
      x1="0" y1="0"
      x2="0.7" y2="1">
      <stop
        offset="0"
        style="stop-color:#222; stop-opacity:0.1"/>
      <stop
        offset="1"
        style="stop-color:#222; stop-opacity:0.4"/>
    </linearGradient>
  </defs>
  <g
    id="layer1"
    style="color:#000000; fill:#c5c; stroke:#302b00; stroke-width:2; stroke-linecap:round;
    stroke-linejoin:round; stroke-miterlimit:4;stroke-opacity:1">
    <path
      style="stroke:#a40000;stroke-width:6; fill:none"
      d="m 5,49 26.5,-12 27.5,8 -26.5,12 z"/>
    <path
      style="stroke:#ef2929; fill:none"
      d="m 5,49 26.5,-12 27.5,8 -26.5,12 z"/>
    <path
      style="fill-rule:evenodd;display:inline"
      d="m 5,18 26.5,-12 27.5,8 -26.5,12 z"/>
    <path
      style="display:inline"
      d="m 5,18 0,20 27.5,8 0,-20 z"/>
    <path
      style="display:inline"
      d="m 32.5,26 26.5,-12 0,20 -26.5,12 z"/>
    <path
      style="fill:url(#linearGradient1);stroke:none"
      d="m 35.5,28 20.5,-9.5 0,14 -20.5,9 z"/>
    <path
      style="fill:url(#linearGradient2);stroke:none"
      d="m 8,22 0,14 21.5,6 0,-14 z"/>
  </g>
</svg>
