<?xml version="1.0" encoding="UTF-8" standalone="no"?>

<svg
  xmlns="http://www.w3.org/2000/svg" version="1.1"
  width="64mm"
  height="64mm"
  viewBox="0 0 64 64">
    <defs>
        <linearGradient
          id="linearGradient1"
          x1="0" y1="0"
          x2="1" y2="1">
            <stop
              offset="0"
              style="stop-color:#222; stop-opacity:0.1"/>
            <stop
              offset="1"
              style="stop-color:#222; stop-opacity:0.5"/>
        </linearGradient>
    </defs>
    <g
      id="layer1"
      style="fill:#c5c; stroke:#302b00; stroke-width:2; stroke-linecap:round;
      stroke-linejoin:round; stroke-miterlimit:4; stroke-opacity:1">
        <path
          d="M 59,39 C 52,49 34,57 21,57 L 5,51 c 13,0 23,-8 30,-18 z"/>
        <path
          d="M 5,51 5,35 C 17,34 19,19 23,7 L 35,33 C 28,43 18,51 5,51 z"/>
        <path
          style="fill-opacity:0.5"
          d="m 5,35 v 16 l 16,6 v -16 z"/>
        <path
          d="m 23,7 24,6 12,26 -24,-6 z"/>
        <path
          d="M 47,13 C 43,25 33,41 21,41 L 5,35 C 17,34 19,19 23,7 z"/>

        <path
          style="fill:url(#linearGradient1); stroke:none"
          d="m 5,41 0,-6 16,6 0,16 -9,-3.4"/>
        <path
          style="fill:none; stroke:#a40000; stroke-width:6"
          d="m 5,35 v 16 l 16,6 v -16 z"/>
        <path
          style="fill:none; stroke:#ef2929; stroke-width:2"
          d="m 5,35 v 16 l 16,6 v -16 z"/>
        <path
          style="fill:none; stroke:#280000; stroke-width:8;
          stroke-dasharray:8, 16; stroke-dashoffset:1.6"
          d="M 6,48 C 32,48 47,44 58,6"/>
        <path
          style="fill:none; stroke:#00bb00; stroke-width:4;
          stroke-dasharray:8, 16; stroke-dashoffset:1.6"
          d="M 6,48 C 32,48 47,44 58,6"/>
        <path
          style="fill:none; stroke:#29ef29; stroke-width:2;
          stroke-dasharray:8, 16; stroke-dashoffset:1.6"
          d="M 6,47 C 32,47 46.257799,43.628016 57.257799,5.6280162"/>
        <path
          style="fill-opacity:0.5; fill:#c5c; stroke:#302b00; stroke-width:2"
          d="M 21,57 21,41 C 33,40 43,25 47,13 L 59,39 C 52,49 34,57 21,57 z"/>
        <path
          style="fill:none; stroke:#a40000; stroke-width:6"
          d="m 23,7 24,6 12,26"/>
        <path
          style="fill:none; stroke:#ef2929;stroke-width:2"
          d="m 23,7 24,6 12,26"/>
        <path
          style="fill:none; stroke:#a40000; stroke-width:6"
          d="m 21,41 v 16"/>
        <path
          style="fill:none; stroke:#ef2929; stroke-width:2"
          d="m 5,35 l 16,6 v 16 l -8,-3"/>
    </g>
</svg>
