<?xml version="1.0" encoding="UTF-8" standalone="no"?>

<svg
  xmlns="http://www.w3.org/2000/svg" version="1.1"
  width="64mm"
  height="64mm"
  viewBox="0 0 64 64">
    <defs>
        <linearGradient
          id="linearGradient1"
          x1="0" y1="0"
          x2="1" y2="1">
            <stop
              offset="0"
              style="stop-color:#222; stop-opacity:0.1"/>
            <stop
              offset="1"
              style="stop-color:#222; stop-opacity:0.4"/>
        </linearGradient>
        <linearGradient
          id="linearGradient2"
          x1="1" y1="0"
          x2="0" y2="1">
            <stop
              offset="0"
              style="stop-color:#222; stop-opacity:0.1"/>
            <stop
              offset="1"
              style="stop-color:#222; stop-opacity:0.4"/>
        </linearGradient>
    </defs>
    <g
      id="layer1"
      style="fill:#c5c; stroke:#302b00; stroke-width:2; stroke-linecap:round;
      stroke-linejoin:round; stroke-miterlimit:4; stroke-opacity:1">
        <path
          d="m 9,31 v 16 l 14,4 v -16 z"/>
        <path
          d="m 9,31 l 14,4 32,-17 -30,-5  z"/>
        <path
          d="m 23,35 l 32,-17 v 38 l -32,-5 v -16 z"/>
        <path
          style="fill:url(#linearGradient1); stroke:none"
          d="m 14,37.4 v 6 l 4,1.2 v -6 z"/>
        <path
          style="fill:url(#linearGradient2); stroke:none"
          d="m 28,36 l 22,-11.8 v 28 l -22,-3.5 v -16 z"/>
    </g>
    <g
      id="Sketches"
      style="fill:none; stroke:#a40000; stroke-width:6; stroke-linecap:round;
      stroke-linejoin:round; stroke-miterlimit:4; stroke-opacity:1">
        <path
          d="m 9,31 v 16 l 14,4 v -16 z"/>
        <path
          style="stroke:#ef2929; stroke-width:2"
          d="m 9,31 v 16 l 14,4 v -16 z"/>
        <path
          d="m 25,11 30,6 v 38"/>
        <path
          style="stroke:#ef2929; stroke-width:2"
          d="m 25,11 30,6 v 38"/>
    </g>
</svg>
