<?xml version="1.0" encoding="UTF-8" standalone="no"?>
<svg
  xmlns="http://www.w3.org/2000/svg"
  version="1.1"
  width="64" height="64"
  viewBox="0 0 64 64">
  <defs id="defs3561">
    <linearGradient
      id="linearGradient1"
      x1="0" y1="0"
      x2="1" y2="1">
      <stop
        offset="0"
        style="stop-color:#222; stop-opacity:0.1"/>
      <stop
        offset="1"
        style="stop-color:#222; stop-opacity:0.3"/>
    </linearGradient>
    <linearGradient
      id="linearGradient2"
      x1="0" y1="0"
      x2="1" y2="1">
      <stop
        offset="0"
        style="stop-color:#222; stop-opacity:0.3"/>
      <stop
        offset="1"
        style="stop-color:#222; stop-opacity:0.5"/>
    </linearGradient>
    <linearGradient
      id="linearGradient3"
      x1="1" y1="0"
      x2="0" y2="1">
      <stop
        offset="0"
        style="stop-color:#222; stop-opacity:0.1"/>
      <stop
        offset="1"
        style="stop-color:#222; stop-opacity:0.3"/>
    </linearGradient>
    <linearGradient
      id="linearGradient4"
      x1="1" y1="0"
      x2="0" y2="1">
      <stop
        offset="0"
        style="stop-color:#222; stop-opacity:0.3"/>
      <stop
        offset="1"
        style="stop-color:#222; stop-opacity:0.5"/>
    </linearGradient>
  </defs>
  <g
    id="outlines"
    style="display:inline; fill:#c5c; fill-opacity:1.0; fill-rule:nonzero; stroke:#112;
      stroke-width:2; stroke-miterlimit:4; stroke-linejoin:round">
    <path
      d="m 9,35 0,-14 14,5 0,14 z"/>
    <path
      d="m 9,35 28,10 0,14 -28,-10 Z"/>
    <path
      d="m 37,45 19,-16 0,14 -19,16 Z"/>
    <path
      d="m 9,21 19,-16 14,5 -19,16 Z"/>
    <path
      d="m 42,10 14,5 -9.5,8 -14,-5 z"/>
    <path
      d="m 56,15 0,14 -9.5,8 0,-14 Z"/>
    <path
      style="fill:#b00"
      d="m 23,40 14,5 9.5,-8 -14,-5 Z"/>
    <path
      style="fill:#b00"
      d="m 32.5,32 0,-14 14,5 0,14 z"/>
    <path
      style="fill:#b00"
      d="m 23,40 0,-14 9.5,-8 0,14 z"/>
  </g>
  <g
    id="shading"
    style="display:inline; fill:#444; fill-rule:nonzero; stroke:none">
    <path
      style="fill:url(#linearGradient1)"
      d="m 12,32.8 0,-7.5 8,3 0,7.5 z"/>
    <path
      style="fill:url(#linearGradient2)"
      d="m 12,39.2 22,8 0,7.5 -22,-8 Z"/>
    <path
      style="fill:url(#linearGradient3)"
      d="m 53,21.4 0,6 -3.5,3.2 0,-6 Z"/>
    <path
      style="fill:url(#linearGradient4)"
      d="m 40,46.5 13,-11 0,6 -13,11 Z"/>
    <path
      style="fill:url(#linearGradient1)"
      d="m 35.5,29.8 0,-7.5 8,3 0,7.5 z"/>
    <path
      style="fill:url(#linearGradient3)"
      d="m 26,33.4 0,-6 3.5,-3.2 0,6 z"/>
  </g>
 
</svg>
