<?xml version="1.0" encoding="UTF-8" standalone="no"?>
<svg
  xmlns="http://www.w3.org/2000/svg"
  xmlns:svg="http://www.w3.org/2000/svg"
  version="1.1"
  width="64" height="64"
  viewBox="0 0 64 64">
  <defs id="Gradients">
    <linearGradient
      id="linearGradient1"
      x1="0" y1="0"
      x2="0.7" y2="1">
      <stop
        offset="0"
        style="stop-color:#222; stop-opacity:0.3" />
      <stop
        offset="0.5"
        style="stop-color:#222; stop-opacity:0.0" />
      <stop
        offset="1"
        style="stop-color:#222; stop-opacity:0.5" />
    </linearGradient>
    <linearGradient
      id="linearGradient2"
      x1="0" y1="0"
      x2="0.7" y2="1">
      <stop
        offset="0"
        style="stop-color:#222; stop-opacity:0.1" />
      <stop
        offset="1"
        style="stop-color:#222; stop-opacity:0.4" />
    </linearGradient>
  </defs>
  <g
    id="outline"
    style="display:inline; fill-rule:nonzero; fill:#c5c; stroke:#320; stroke-width:2; stroke-linecap:round;
    stroke-linejoin:round; stroke-miterlimit:4; stroke-opacity:1">
    <path
      id="path01"
      style="stroke:#a00;stroke-width:6"
      d="m 5,51 54,-39"/>
    <path
      id="path02"
      style="stroke:#f33"
      d="m 5,51 54,-39"/>
    <path
      id="path034"
      d="m 3,21 c 20,0 32,22 32,38 L 61,39 C 61,23 49,7 35,7 z"/>
    <path
      id="path04"
      d="M 35,59 C 35,43 23,21 3,21 l 4,14 c 8,0 14,8 14,18 z"/>
    <path
      id="path05"
      style="fill:url(#linearGradient1); stroke:none"
      d="M 12,20 35.0,10 C 48,10 57,25 58.2,37.5 L 37,54 C 37,44 27,24 12,20 z"/>
    <path
      id="path06"
      style="fill:url(#linearGradient2); stroke:none"
      d="M 32,54.5 C 32,44 20.6,25 6.6,24 L 9,32.1 C 14,34 21.3,36 23.8,51 z"/>
  </g>
</svg>
